# xmcd
#
# Track frame offsets:
#	150
#	21171
#	38166
#	58462
#
# Disc length: 1016 seconds
#
# Revision: 0
# Processed by: cddbd v1.5.2PL0 Copyright (c) Steve Scherf et al.
# Submitted via: audiograbber 1.82.02
#
DISCID=3203f604
DTITLE=Koid - Five Ta Life
DYEAR=2001
DGENRE=Rap
TTITLE0=I Can't Help Myself
TTITLE1=Would U Die 4 Me?
TTITLE2=Father Forgive Me
TTITLE3=If I Could Change The World
EXTD=Cashflow420.com
EXTT0=
EXTT1=
EXTT2=
EXTT3=
PLAYORDER=
